# xmcd
#
# Track frame offsets: 
#        200
#        10607
#        28075
#        43500
#        55910
#        77440
#        92632
#        110027
#
# Disc length: 1709 seconds
#
# Revision: 0
# Processed by: cddbd v1.5.2PL0 Copyright (c) Steve Scherf et al.
# Submitted via: ExactAudioCopy v1.0b3
#
DISCID=5606ab08
DTITLE=Todd Bolton - Todd Bolton
DYEAR=1995
DGENRE=Country
TTITLE0=Country Life
TTITLE1=Family Tree
TTITLE2=There's a Lady Out There (Somewhere)
TTITLE3=Love Ride
TTITLE4=I'm in Love with Country
TTITLE5=See the Children
TTITLE6=Why Did You Leave
TTITLE7=The Company
EXTD=
EXTT0=
EXTT1=
EXTT2=
EXTT3=
EXTT4=
EXTT5=
EXTT6=
EXTT7=
PLAYORDER=
